<svg width="495" height="512" viewBox="0 0 495 512" fill="none" xmlns="http://www.w3.org/2000/svg">
<g clip-path="url(#clip0)">
<path d="M494.513 150.529C493.353 123.325 489.1 104.622 483.007 88.4157C476.722 71.2131 467.052 55.8117 454.383 43.0084C442.005 30.0059 427.017 19.9023 410.578 13.5026C394.819 7.20062 376.832 2.80133 350.53 1.60187C324.033 0.30084 315.621 0 248.415 0C181.21 0 172.798 0.30084 146.398 1.50029C120.097 2.69975 102.015 7.10295 86.3509 13.4011C69.7158 19.9023 54.8257 29.9043 42.4475 43.0084C29.8767 55.8117 20.1125 71.3147 13.9215 88.318C7.82872 104.622 3.5755 123.223 2.41587 150.428C1.15804 177.835 0.867188 186.536 0.867188 256.05C0.867188 325.564 1.15804 334.264 2.31766 361.571C3.47729 388.775 7.73429 407.478 13.8271 423.684C20.1125 440.887 29.8767 456.288 42.4475 469.092C54.8257 482.094 69.814 492.198 86.2527 498.597C102.015 504.899 119.999 509.299 146.304 510.498C172.7 511.701 181.115 511.998 248.321 511.998C315.526 511.998 323.938 511.701 350.338 510.498C376.639 509.299 394.721 504.899 410.385 498.597C443.652 485.294 469.953 458.089 482.815 423.684C488.904 407.38 493.161 388.775 494.32 361.571C495.48 334.264 495.771 325.564 495.771 256.05C495.771 186.536 495.673 177.835 494.513 150.529ZM449.937 359.57C448.872 384.575 444.811 398.078 441.427 407.079C433.109 429.385 415.995 447.087 394.43 455.691C385.727 459.191 372.578 463.391 348.498 464.489C322.39 465.692 314.559 465.989 248.514 465.989C182.468 465.989 174.539 465.692 148.525 464.489C124.35 463.391 111.296 459.191 102.593 455.691C91.862 451.588 82.0939 445.087 74.1654 436.585C65.946 428.283 59.6606 418.281 55.6945 407.181C52.31 398.179 48.2494 384.575 47.188 359.672C46.0246 332.667 45.7376 324.563 45.7376 256.249C45.7376 187.935 46.0246 179.734 47.188 152.831C48.2494 127.826 52.31 114.323 55.6945 105.321C59.6606 94.2176 65.946 84.118 74.2636 75.9133C82.2866 67.4116 91.9564 60.9103 102.691 56.8119C111.394 53.3112 124.547 49.1111 148.623 48.0094C174.732 46.8099 182.566 46.5091 248.608 46.5091C314.752 46.5091 322.582 46.8099 348.596 48.0094C372.771 49.1111 385.825 53.3112 394.528 56.8119C405.26 60.9103 415.028 67.4116 422.956 75.9133C431.175 84.2157 437.461 94.2176 441.427 105.321C444.811 114.323 448.872 127.923 449.937 152.831C451.097 179.836 451.388 187.935 451.388 256.249C451.388 324.563 451.097 332.565 449.937 359.57Z" fill="#F7F7F7"/>
<path d="M248.424 124.525C178.223 124.525 121.266 183.435 121.266 256.051C121.266 328.667 178.223 387.577 248.424 387.577C318.629 387.577 375.583 328.667 375.583 256.051C375.583 183.435 318.629 124.525 248.424 124.525ZM248.424 341.368C202.881 341.368 165.94 303.162 165.94 256.051C165.94 208.94 202.881 170.734 248.424 170.734C293.971 170.734 330.909 208.94 330.909 256.051C330.909 303.162 293.971 341.368 248.424 341.368V341.368Z" fill="#F7F7F7"/>
<path d="M410.289 119.322C410.289 136.278 396.997 150.027 380.6 150.027C364.206 150.027 350.914 136.278 350.914 119.322C350.914 102.361 364.206 88.6162 380.6 88.6162C396.997 88.6162 410.289 102.361 410.289 119.322V119.322Z" fill="#F7F7F7"/>
</g>
<defs>
<clipPath id="clip0">
<rect width="495" height="512" fill="white"/>
</clipPath>
</defs>
</svg>
